#N canvas 137 216 2149 1113 10;
#X msg 686 108 \; pd dsp \$1;
#X msg 382 90 start;
#X msg 293 84 stop;
#X obj 67 54 netreceive 3000;
#X obj 293 52 r stop_music;
#X obj 382 52 r play_music;
#X obj 84 218 s play_music;
#X msg 429 89 open jukebox/\$1.wav;
#X obj 66 242 s stop_music;
#X obj 382 173 *~ 0.8;
#X obj 484 171 r set_volume;
#X obj 100 194 s set_volume;
#X obj 116 171 s toggle_dsp;
#X obj 686 56 r toggle_dsp;
#X text 686 34 DSP Toggle;
#X text 66 32 Communication;
#X text 289 28 Audio Control;
#X obj 686 83 tgl 15 0 empty empty empty 17 7 0 10 -262144 -1 -1 1
1;
#X obj 382 138 readsf~ 1;
#X obj 382 214 dac~ 1 2;
#X msg 41 368 start;
#X msg 93 368 open grain.wav;
#X obj 41 395 readsf~ 1;
#X obj 40 425 *~ 50;
#X obj 442 521 r set_grain_volume;
#X obj 133 149 s play_grain;
#X obj 41 454 dac~ 3;
#X msg 204 367 start;
#X msg 256 367 open grain.wav;
#X obj 204 395 readsf~ 1;
#X obj 204 425 *~ 50;
#X msg 373 365 start;
#X msg 425 365 open grain.wav;
#X obj 373 393 readsf~ 1;
#X obj 373 423 *~ 50;
#X msg 537 365 start;
#X msg 589 365 open grain.wav;
#X obj 537 392 readsf~ 1;
#X obj 536 422 *~ 50;
#X msg 695 363 start;
#X msg 747 363 open grain.wav;
#X obj 695 390 readsf~ 1;
#X obj 694 420 *~ 50;
#X msg 858 362 start;
#X msg 910 362 open grain.wav;
#X obj 858 390 readsf~ 1;
#X obj 858 420 *~ 50;
#X obj 485 268 route 3 4 5 6 7 8;
#X obj 204 453 dac~ 4;
#X obj 373 452 dac~ 5;
#X obj 537 451 dac~ 6;
#X obj 695 449 dac~ 7;
#X obj 858 449 dac~ 8;
#X obj 495 237 r play_grain;
#X obj 801 251 bng 15 250 50 0 empty empty empty 17 7 0 10 -262144
-1 -1;
#X obj 801 271 bng 15 250 50 0 empty empty empty 17 7 0 10 -262144
-1 -1;
#X obj 802 291 bng 15 250 50 0 empty empty empty 17 7 0 10 -262144
-1 -1;
#X obj 802 310 bng 15 250 50 0 empty empty empty 17 7 0 10 -262144
-1 -1;
#X obj 799 210 bng 15 250 50 0 empty empty empty 17 7 0 10 -262144
-1 -1;
#X obj 800 230 bng 15 250 50 0 empty empty empty 17 7 0 10 -262144
-1 -1;
#X obj 67 90 route 0 1 2 3 4 5;
#X obj 149 126 s set_grain_volume;
#X connect 1 0 18 0;
#X connect 2 0 18 0;
#X connect 3 0 60 0;
#X connect 4 0 2 0;
#X connect 5 0 7 0;
#X connect 5 0 1 0;
#X connect 7 0 18 0;
#X connect 9 0 19 0;
#X connect 9 0 19 1;
#X connect 10 0 9 1;
#X connect 13 0 17 0;
#X connect 17 0 0 0;
#X connect 18 0 9 0;
#X connect 20 0 22 0;
#X connect 21 0 22 0;
#X connect 22 0 23 0;
#X connect 23 0 26 0;
#X connect 24 0 23 1;
#X connect 24 0 30 1;
#X connect 24 0 34 1;
#X connect 24 0 38 1;
#X connect 24 0 42 1;
#X connect 24 0 46 1;
#X connect 27 0 29 0;
#X connect 28 0 29 0;
#X connect 29 0 30 0;
#X connect 30 0 48 0;
#X connect 31 0 33 0;
#X connect 32 0 33 0;
#X connect 33 0 34 0;
#X connect 34 0 49 0;
#X connect 35 0 37 0;
#X connect 36 0 37 0;
#X connect 37 0 38 0;
#X connect 38 0 50 0;
#X connect 39 0 41 0;
#X connect 40 0 41 0;
#X connect 41 0 42 0;
#X connect 42 0 51 0;
#X connect 43 0 45 0;
#X connect 44 0 45 0;
#X connect 45 0 46 0;
#X connect 46 0 52 0;
#X connect 47 0 58 0;
#X connect 47 0 21 0;
#X connect 47 0 20 0;
#X connect 47 1 28 0;
#X connect 47 1 59 0;
#X connect 47 1 27 0;
#X connect 47 2 54 0;
#X connect 47 2 32 0;
#X connect 47 2 31 0;
#X connect 47 3 55 0;
#X connect 47 3 36 0;
#X connect 47 3 35 0;
#X connect 47 4 56 0;
#X connect 47 4 40 0;
#X connect 47 4 39 0;
#X connect 47 5 57 0;
#X connect 47 5 44 0;
#X connect 47 5 43 0;
#X connect 53 0 47 0;
#X connect 60 0 8 0;
#X connect 60 1 6 0;
#X connect 60 2 11 0;
#X connect 60 3 12 0;
#X connect 60 4 25 0;
#X connect 60 5 61 0;
