#N canvas 0 96 1920 984 10;
#X msg 327 106 \; pd dsp \$1;
#X obj 67 54 netreceive 3000;
#X obj 114 190 s toggle_dsp;
#X obj 327 54 r toggle_dsp;
#X text 327 32 DSP Toggle;
#X text 66 32 Communication;
#X obj 327 81 tgl 15 0 empty empty empty 17 7 0 10 -262144 -1 -1 1
1;
#X obj 130 168 s play_grain;
#X obj 146 145 s set_grain_volume;
#X msg 611 862 start;
#X obj 611 889 readsf~ 1;
#X obj 611 948 dac~ 3;
#X msg 856 867 start;
#X obj 856 895 readsf~ 1;
#X msg 1133 868 start;
#X obj 1133 896 readsf~ 1;
#X msg 1362 866 start;
#X obj 1362 893 readsf~ 1;
#X msg 1608 865 start;
#X obj 1608 892 readsf~ 1;
#X msg 1849 865 start;
#X obj 1849 893 readsf~ 1;
#X obj 856 953 dac~ 4;
#X obj 1133 955 dac~ 5;
#X obj 1362 952 dac~ 6;
#X obj 1608 951 dac~ 7;
#X obj 1849 952 dac~ 8;
#X msg 123 864 start;
#X obj 123 891 readsf~ 1;
#X msg 353 861 start;
#X obj 353 889 readsf~ 1;
#X obj 896 593 route 1 2 3 4 5 6 7 8;
#X obj 123 950 dac~ 1;
#X obj 353 948 dac~ 2;
#X msg 412 826 \$1;
#X msg 404 862 open jukebox/\$1.wav;
#X msg 1243 1156 stop;
#X msg 175 864 open jukebox/\$1.wav;
#X msg 663 862 open jukebox/\$1.wav;
#X msg 907 867 open jukebox/\$1.wav;
#X msg 1185 868 open jukebox/\$1.wav;
#X msg 1414 866 open jukebox/\$1.wav;
#X msg 1660 866 open jukebox/\$1.wav;
#X msg 1901 865 open jukebox/\$1.wav;
#X msg 160 830 \$1;
#X msg 649 822 \$1;
#X msg 889 828 \$1;
#X msg 1164 835 \$1;
#X msg 1391 835 \$1;
#X msg 1638 831 \$1;
#X msg 1879 829 \$1;
#X obj 122 921 *~ 0.8;
#X obj 353 919 *~ 0.8;
#X obj 610 919 *~ 0.8;
#X obj 856 925 *~ 0.8;
#X obj 1133 926 *~ 0.8;
#X obj 1361 923 *~ 0.8;
#X obj 1607 922 *~ 0.8;
#X obj 1849 923 *~ 0.8;
#X obj 719 1146 r set_music_volume;
#X obj 1150 591 route 1 2 3 4 5 6 7 8;
#X msg 896 561 \$1 \$3;
#X msg 1150 561 \$2 \$3;
#X text 1240 1176 Music Stop Control;
#X text 718 1167 Music Volume Control;
#X text 1017 492 Music Playback Routing;
#X obj 1242 1127 r stop_music;
#X obj 1022 516 r play_music;
#X obj 82 236 s play_music;
#X obj 67 261 s stop_music;
#X obj 326 326 r test_tone;
#X obj 106 483 osc~;
#X obj 106 546 dac~ 1;
#X obj 326 352 route 1 2 3 4 5 6 7 8;
#X obj 67 90 route 0 1 2 3 4 5 6;
#X obj 162 124 s test_tone;
#X msg 106 455 220;
#X obj 106 513 *~ 0.1;
#X obj 138 455 tgl 15 0 empty empty empty 17 7 0 10 -262144 -1 -1 0
1;
#X obj 181 482 osc~;
#X msg 181 454 220;
#X obj 181 512 *~ 0.1;
#X obj 213 454 tgl 15 0 empty empty empty 17 7 0 10 -262144 -1 -1 0
1;
#X obj 252 481 osc~;
#X msg 252 453 220;
#X obj 252 511 *~ 0.1;
#X obj 284 453 tgl 15 0 empty empty empty 17 7 0 10 -262144 -1 -1 0
1;
#X obj 323 480 osc~;
#X msg 323 452 220;
#X obj 323 510 *~ 0.1;
#X obj 355 452 tgl 15 0 empty empty empty 17 7 0 10 -262144 -1 -1 0
1;
#X obj 394 480 osc~;
#X msg 394 452 220;
#X obj 394 510 *~ 0.1;
#X obj 426 452 tgl 15 0 empty empty empty 17 7 0 10 -262144 -1 -1 0
1;
#X obj 469 479 osc~;
#X msg 469 451 220;
#X obj 469 509 *~ 0.1;
#X obj 501 451 tgl 15 0 empty empty empty 17 7 0 10 -262144 -1 -1 0
1;
#X obj 540 478 osc~;
#X msg 540 450 220;
#X obj 540 508 *~ 0.1;
#X obj 572 450 tgl 15 0 empty empty empty 17 7 0 10 -262144 -1 -1 0
1;
#X obj 613 478 osc~;
#X msg 613 450 220;
#X obj 613 508 *~ 0.1;
#X obj 645 450 tgl 15 0 empty empty empty 17 7 0 10 -262144 -1 -1 0
1;
#X obj 181 545 dac~ 2;
#X obj 252 544 dac~ 3;
#X obj 323 543 dac~ 4;
#X obj 394 543 dac~ 5;
#X obj 469 542 dac~ 6;
#X obj 540 541 dac~ 7;
#X obj 612 541 dac~ 8;
#X msg 1080 236 start;
#X msg 1132 236 open grain.wav;
#X obj 1080 263 readsf~ 1;
#X obj 1079 293 *~ 50;
#X obj 1339 393 r set_grain_volume;
#X obj 1080 322 dac~ 3;
#X msg 1243 235 start;
#X msg 1295 235 open grain.wav;
#X obj 1243 263 readsf~ 1;
#X obj 1243 293 *~ 50;
#X msg 1412 233 start;
#X msg 1464 233 open grain.wav;
#X obj 1412 261 readsf~ 1;
#X obj 1412 291 *~ 50;
#X msg 1576 233 start;
#X msg 1628 233 open grain.wav;
#X obj 1576 260 readsf~ 1;
#X obj 1575 290 *~ 50;
#X msg 1734 231 start;
#X msg 1786 231 open grain.wav;
#X obj 1734 258 readsf~ 1;
#X obj 1733 288 *~ 50;
#X msg 1897 230 start;
#X msg 1949 230 open grain.wav;
#X obj 1897 258 readsf~ 1;
#X obj 1897 288 *~ 50;
#X obj 1243 321 dac~ 4;
#X obj 1412 320 dac~ 5;
#X obj 1576 319 dac~ 6;
#X obj 1734 317 dac~ 7;
#X obj 1897 317 dac~ 8;
#X obj 1338 67 r play_grain;
#X obj 1114 189 bng 15 250 50 0 empty empty empty 17 7 0 10 -262144
-1 -1;
#X obj 1277 188 bng 15 250 50 0 empty empty empty 17 7 0 10 -262144
-1 -1;
#X obj 1449 191 bng 15 250 50 0 empty empty empty 17 7 0 10 -262144
-1 -1;
#X obj 1611 191 bng 15 250 50 0 empty empty empty 17 7 0 10 -262144
-1 -1;
#X obj 787 195 bng 15 250 50 0 empty empty empty 17 7 0 10 -262144
-1 -1;
#X obj 948 192 bng 15 250 50 0 empty empty empty 17 7 0 10 -262144
-1 -1;
#X msg 751 238 start;
#X msg 803 238 open grain.wav;
#X obj 751 265 readsf~ 1;
#X obj 750 295 *~ 50;
#X msg 914 237 start;
#X msg 966 237 open grain.wav;
#X obj 914 265 readsf~ 1;
#X obj 914 295 *~ 50;
#X obj 1338 99 route 1 2 3 4 5 6 7 8;
#X obj 751 324 dac~ 1;
#X obj 914 324 dac~ 2;
#X obj 1768 191 bng 15 250 50 0 empty empty empty 17 7 0 10 -262144
-1 -1;
#X obj 1925 187 bng 15 250 50 0 empty empty empty 17 7 0 10 -262144
-1 -1;
#X text 1333 43 Grain Vibration Routing;
#X text 1339 439 Grain Vibration Volume Control;
#X text 321 304 Tone Test Routing;
#X obj 98 212 s set_music_volume;
#X obj 1339 419 route 1 2 3 4 5 6 7 8;
#X connect 1 0 74 0;
#X connect 3 0 6 0;
#X connect 6 0 0 0;
#X connect 9 0 10 0;
#X connect 10 0 53 0;
#X connect 12 0 13 0;
#X connect 13 0 54 0;
#X connect 14 0 15 0;
#X connect 15 0 55 0;
#X connect 16 0 17 0;
#X connect 17 0 56 0;
#X connect 18 0 19 0;
#X connect 19 0 57 0;
#X connect 20 0 21 0;
#X connect 21 0 58 0;
#X connect 27 0 28 0;
#X connect 28 0 51 0;
#X connect 29 0 30 0;
#X connect 30 0 52 0;
#X connect 31 0 44 0;
#X connect 31 1 34 0;
#X connect 31 2 45 0;
#X connect 31 3 46 0;
#X connect 31 4 47 0;
#X connect 31 5 48 0;
#X connect 31 6 49 0;
#X connect 31 7 50 0;
#X connect 34 0 35 0;
#X connect 34 0 29 0;
#X connect 35 0 30 0;
#X connect 36 0 28 0;
#X connect 36 0 30 0;
#X connect 36 0 10 0;
#X connect 36 0 13 0;
#X connect 36 0 15 0;
#X connect 36 0 17 0;
#X connect 36 0 19 0;
#X connect 36 0 21 0;
#X connect 37 0 28 0;
#X connect 38 0 10 0;
#X connect 39 0 13 0;
#X connect 40 0 15 0;
#X connect 41 0 17 0;
#X connect 42 0 19 0;
#X connect 43 0 21 0;
#X connect 44 0 37 0;
#X connect 44 0 27 0;
#X connect 45 0 38 0;
#X connect 45 0 9 0;
#X connect 46 0 39 0;
#X connect 46 0 12 0;
#X connect 47 0 40 0;
#X connect 47 0 14 0;
#X connect 48 0 41 0;
#X connect 48 0 16 0;
#X connect 49 0 42 0;
#X connect 49 0 18 0;
#X connect 50 0 43 0;
#X connect 50 0 20 0;
#X connect 51 0 32 0;
#X connect 52 0 33 0;
#X connect 53 0 11 0;
#X connect 54 0 22 0;
#X connect 55 0 23 0;
#X connect 56 0 24 0;
#X connect 57 0 25 0;
#X connect 58 0 26 0;
#X connect 59 0 51 1;
#X connect 59 0 52 1;
#X connect 59 0 53 1;
#X connect 59 0 54 1;
#X connect 59 0 55 1;
#X connect 59 0 56 1;
#X connect 59 0 57 1;
#X connect 59 0 58 1;
#X connect 60 0 44 0;
#X connect 60 1 34 0;
#X connect 60 2 45 0;
#X connect 60 3 46 0;
#X connect 60 4 47 0;
#X connect 60 5 48 0;
#X connect 60 6 49 0;
#X connect 60 7 50 0;
#X connect 61 0 31 0;
#X connect 62 0 60 0;
#X connect 66 0 36 0;
#X connect 67 0 61 0;
#X connect 67 0 62 0;
#X connect 70 0 73 0;
#X connect 71 0 77 0;
#X connect 73 0 78 0;
#X connect 73 0 76 0;
#X connect 73 1 80 0;
#X connect 73 1 82 0;
#X connect 73 2 84 0;
#X connect 73 2 86 0;
#X connect 73 3 88 0;
#X connect 73 3 90 0;
#X connect 73 4 92 0;
#X connect 73 4 94 0;
#X connect 73 5 96 0;
#X connect 73 5 98 0;
#X connect 73 6 100 0;
#X connect 73 6 102 0;
#X connect 73 7 104 0;
#X connect 73 7 106 0;
#X connect 74 0 69 0;
#X connect 74 1 68 0;
#X connect 74 2 168 0;
#X connect 74 3 2 0;
#X connect 74 4 7 0;
#X connect 74 5 8 0;
#X connect 74 6 75 0;
#X connect 76 0 71 0;
#X connect 77 0 72 0;
#X connect 78 0 77 1;
#X connect 79 0 81 0;
#X connect 80 0 79 0;
#X connect 81 0 107 0;
#X connect 82 0 81 1;
#X connect 83 0 85 0;
#X connect 84 0 83 0;
#X connect 85 0 108 0;
#X connect 86 0 85 1;
#X connect 87 0 89 0;
#X connect 88 0 87 0;
#X connect 89 0 109 0;
#X connect 90 0 89 1;
#X connect 91 0 93 0;
#X connect 92 0 91 0;
#X connect 93 0 110 0;
#X connect 94 0 93 1;
#X connect 95 0 97 0;
#X connect 96 0 95 0;
#X connect 97 0 111 0;
#X connect 98 0 97 1;
#X connect 99 0 101 0;
#X connect 100 0 99 0;
#X connect 101 0 112 0;
#X connect 102 0 101 1;
#X connect 103 0 105 0;
#X connect 104 0 103 0;
#X connect 105 0 113 0;
#X connect 106 0 105 1;
#X connect 114 0 116 0;
#X connect 115 0 116 0;
#X connect 116 0 117 0;
#X connect 117 0 119 0;
#X connect 118 0 169 0;
#X connect 120 0 122 0;
#X connect 121 0 122 0;
#X connect 122 0 123 0;
#X connect 123 0 140 0;
#X connect 124 0 126 0;
#X connect 125 0 126 0;
#X connect 126 0 127 0;
#X connect 127 0 141 0;
#X connect 128 0 130 0;
#X connect 129 0 130 0;
#X connect 130 0 131 0;
#X connect 131 0 142 0;
#X connect 132 0 134 0;
#X connect 133 0 134 0;
#X connect 134 0 135 0;
#X connect 135 0 143 0;
#X connect 136 0 138 0;
#X connect 137 0 138 0;
#X connect 138 0 139 0;
#X connect 139 0 144 0;
#X connect 145 0 160 0;
#X connect 146 0 115 0;
#X connect 146 0 114 0;
#X connect 147 0 121 0;
#X connect 147 0 120 0;
#X connect 148 0 125 0;
#X connect 148 0 124 0;
#X connect 149 0 129 0;
#X connect 149 0 128 0;
#X connect 150 0 153 0;
#X connect 150 0 152 0;
#X connect 151 0 157 0;
#X connect 151 0 156 0;
#X connect 152 0 154 0;
#X connect 153 0 154 0;
#X connect 154 0 155 0;
#X connect 155 0 161 0;
#X connect 156 0 158 0;
#X connect 157 0 158 0;
#X connect 158 0 159 0;
#X connect 159 0 162 0;
#X connect 160 0 150 0;
#X connect 160 1 151 0;
#X connect 160 2 146 0;
#X connect 160 3 147 0;
#X connect 160 4 148 0;
#X connect 160 5 149 0;
#X connect 160 6 163 0;
#X connect 160 7 164 0;
#X connect 163 0 133 0;
#X connect 163 0 132 0;
#X connect 164 0 137 0;
#X connect 164 0 136 0;
#X connect 169 0 155 1;
#X connect 169 1 159 1;
#X connect 169 2 117 1;
#X connect 169 3 123 1;
#X connect 169 4 127 1;
#X connect 169 5 131 1;
#X connect 169 6 135 1;
#X connect 169 7 139 1;
